<?xml version="1.0" standalone="no"?>
<!DOCTYPE svg PUBLIC "-//W3C//DTD SVG 20010904//EN"
 "http://www.w3.org/TR/2001/REC-SVG-20010904/DTD/svg10.dtd">
<svg version="1.0" xmlns="http://www.w3.org/2000/svg"
 width="256.000000pt" height="256.000000pt" viewBox="0 0 256.000000 256.000000"
 preserveAspectRatio="xMidYMid meet">
<metadata>
Created by potrace 1.11, written by Peter Selinger 2001-2013
</metadata>
<g transform="translate(0.000000,256.000000) scale(0.100000,-0.100000)"
fill="#000000" stroke="none">
<path d="M1985 2505 c-39 -41 -50 -60 -51 -86 0 -19 -3 -52 -7 -74 -3 -22 -9
-65 -12 -95 -4 -30 -9 -66 -11 -80 -2 -14 -7 -52 -10 -85 -4 -33 -8 -67 -9
-75 -2 -8 -6 -40 -10 -70 -3 -30 -8 -68 -10 -84 -4 -31 -21 -47 -41 -39 -8 3
-17 -11 -25 -37 -12 -38 -11 -45 11 -85 l23 -42 -43 -79 c-24 -44 -49 -91 -57
-105 -7 -15 -20 -33 -29 -40 -19 -16 -84 -13 -102 5 -12 12 -10 20 13 57 15
23 33 57 41 74 l13 31 -49 18 c-58 21 -93 53 -107 99 -10 33 -6 53 22 119 7
17 4 17 -36 2 -24 -8 -71 -17 -104 -20 -33 -3 -94 -17 -136 -31 -82 -29 -109
-26 -109 10 0 38 -12 40 -41 7 -15 -16 -59 -47 -98 -68 -89 -47 -163 -118
-197 -188 -23 -48 -26 -62 -20 -121 3 -38 8 -99 11 -137 6 -99 18 -127 65
-154 40 -23 48 -36 30 -47 -5 -3 -57 10 -114 30 -58 19 -113 35 -124 35 -13 0
-23 -15 -37 -57 -10 -32 -25 -70 -32 -86 -12 -23 -26 -74 -71 -247 -10 -39 -7
-191 5 -234 23 -77 142 -174 226 -183 46 -5 55 -2 80 21 59 55 67 18 18 -87
-21 -45 -45 -106 -52 -136 -13 -53 -13 -54 11 -70 13 -9 45 -21 72 -27 45 -10
50 -10 63 10 8 11 15 26 15 33 0 17 66 139 99 183 55 75 129 116 184 104 33
-7 107 -76 129 -119 16 -31 27 -84 30 -145 2 -53 13 -61 72 -55 28 4 60 8 71
10 11 2 28 4 38 4 10 1 22 12 27 26 14 36 18 137 8 208 l-8 60 39 33 c21 18
44 47 51 65 l13 32 -80 76 -80 76 1 130 c1 117 3 133 23 161 19 27 31 32 80
38 32 4 63 10 68 14 6 4 12 36 13 71 2 36 10 70 17 78 8 7 30 40 50 73 37 62
53 71 75 45 22 -26 48 -18 55 18 21 107 57 274 62 287 3 8 7 20 9 27 3 16 36
49 56 56 23 8 34 55 19 80 -54 86 -56 102 -26 262 15 87 16 88 40 247 16 102
16 111 -1 160 -10 29 -22 77 -29 107 -6 30 -15 55 -20 56 -6 1 -32 -22 -60
-50z"/>
</g>
</svg>
